<?xml version="1.0" encoding="utf-8"?>
<!-- Svg Vector Icons : http://www.onlinewebfonts.com/icon -->
<!DOCTYPE svg PUBLIC "-//W3C//DTD SVG 1.1//EN" "http://www.w3.org/Graphics/SVG/1.1/DTD/svg11.dtd">
<svg version="1.1" xmlns="http://www.w3.org/2000/svg" xmlns:xlink="http://www.w3.org/1999/xlink" x="0px" y="0px" viewBox="0 0 1000 1000" enable-background="new 0 0 1000 1000" xml:space="preserve">
<metadata> Svg Vector Icons : http://www.onlinewebfonts.com/icon </metadata>
<g><g transform="translate(0.000000,511.000000) scale(0.100000,-0.100000)"><path d="M2342.8,4980.4c-557-121.1-1012.4-561.9-1167.4-1128.6c-41.2-145.3-43.6-382.7-43.6-3751.5v-3596.5l55.7-181.6c128.4-414.1,404.5-748.4,770.2-937.3c358.4-186.5,203.4-179.2,3114.6-171.9l2598.7,7.3l162.3,63c465,181.6,779.8,496.5,961.5,961.5l63,162.3l7.2,3628c7.2,4032.5,17,3775.8-157.4,4134.2c-67.8,135.6-138.1,232.5-283.4,377.8c-213.1,213.1-343.9,295.5-620,392.3l-181.6,65.4l-2567.2,4.8C2999.1,5011.9,2459,5007,2342.8,4980.4z M2674.6,2774l7.3-1731.7l750.8,525.6c414.2,288.2,767.7,528,787.1,532.8c19.4,4.8,375.4-230.1,787.1-520.7l750.8-528l12.1,1722l12.1,1722h859.8c779.9,0,871.9-4.8,1000.2-46c281-92,537.7-334.2,649.1-612.7l58.1-140.5l7.3-3511.8c4.8-2601.1,0-3545.7-19.4-3645c-82.4-387.5-409.3-714.5-799.2-796.8c-99.3-21.8-772.6-26.6-2615.7-21.8l-2482.5,7.3l-128.4,53.3c-193.8,77.5-382.7,234.9-491.7,402c-179.2,276.1-167.1-4.8-167.1,3916.2c0,3853.3-7.3,3645,135.6,3889.6c75.1,130.8,288.2,329.4,421.4,397.2c89.6,46,331.8,113.8,428.7,118.7C2662.5,4508.1,2669.8,4137.6,2674.6,2774z M5261.2,3270.5c0-983.3-7.3-1232.7-29.1-1215.8c-17,9.7-247,169.5-511,353.6c-264,184.1-494.1,331.8-511,324.6c-26.6-9.7-300.3-201-854.9-591l-152.6-106.6v1235.2v1237.6h1029.3h1029.3V3270.5z"/><path d="M3711.2-1183.4V-1692l-513.5-4.8l-515.9-7.3v-254.3v-254.3l515.9-7.3l513.5-4.8v-508.6V-3242h254.3h254.3v508.6v508.6h520.7h520.7v266.4v266.4h-520.7h-520.7v508.6v508.6h-254.3h-254.3V-1183.4z"/></g></g>
</svg>