<?xml version="1.0" encoding="UTF-8" standalone="no"?>
<!-- Created with Inkscape (http://www.inkscape.org/) -->

<svg
   xmlns:dc="http://purl.org/dc/elements/1.1/"
   xmlns:cc="http://creativecommons.org/ns#"
   xmlns:rdf="http://www.w3.org/1999/02/22-rdf-syntax-ns#"
   xmlns:svg="http://www.w3.org/2000/svg"
   xmlns="http://www.w3.org/2000/svg"
   xmlns:xlink="http://www.w3.org/1999/xlink"
   xmlns:sodipodi="http://sodipodi.sourceforge.net/DTD/sodipodi-0.dtd"
   xmlns:inkscape="http://www.inkscape.org/namespaces/inkscape"
   version="1.1"
   id="svg265"
   width="529.06665"
   height="529.06665"
   viewBox="0 0 529.06665 529.06665"
   sodipodi:docname="open-book.svg"
   inkscape:version="0.92.3 (2405546, 2018-03-11)">
  <metadata
     id="metadata271">
    <rdf:RDF>
      <cc:Work
         rdf:about="">
        <dc:format>image/svg+xml</dc:format>
        <dc:type
           rdf:resource="http://purl.org/dc/dcmitype/StillImage" />
        <dc:title></dc:title>
      </cc:Work>
    </rdf:RDF>
  </metadata>
  <defs
     id="defs269" />
  <sodipodi:namedview
     pagecolor="#ffffff"
     bordercolor="#666666"
     borderopacity="1"
     objecttolerance="10"
     gridtolerance="10"
     guidetolerance="10"
     inkscape:pageopacity="0"
     inkscape:pageshadow="2"
     inkscape:window-width="1920"
     inkscape:window-height="1025"
     id="namedview267"
     showgrid="false"
     inkscape:zoom="1.49"
     inkscape:cx="273.29385"
     inkscape:cy="221.99767"
     inkscape:window-x="0"
     inkscape:window-y="27"
     inkscape:window-maximized="1"
     inkscape:current-layer="svg265" />
  <image
     sodipodi:absref="/home/miguel/Ironhack/Alexandria/Alexandria/public/images/open-book-blue.png"
     y="0.10378309"
     x="-2.1172183"
     id="image4548"
     xlink:href="file:///home/miguel/Ironhack/Alexandria/Alexandria/public/images/open-book-blue.png"
     preserveAspectRatio="none"
     height="529.06665"
     width="529.06665" />
  <g
     id="g4681">
    <path
       style="fill:#fde9b5;stroke-width:1.0666666"
       d="m 18.497608,457.66331 c -2.448512,-0.48793 -5.808512,-1.59887 -7.466667,-2.46876 C 6.2490679,452.68591 0.47731986,445.82742 -0.87516031,441.04668 -1.7928088,437.80298 -2.1172183,398.36113 -2.1172183,290.0367 c 0,-164.17655 -0.5354758,-152.97657 7.6682266,-160.38812 5.8802367,-5.31245 10.1750117,-6.87813 18.8670857,-6.87813 h 7.403833 l 0.36376,-11.09088 c 0.296151,-9.0295 0.737201,-11.503 2.372989,-13.308188 3.615563,-3.989997 30.012029,-13.515851 51.857436,-18.714112 21.674598,-5.157616 33.854538,-6.446068 60.799998,-6.431712 24.99312,0.01331 39.64336,1.369358 55.75971,5.161175 5.74779,1.352324 6.33912,1.308124 8.84239,-0.660947 3.30382,-2.598783 5.64512,-2.241158 22.08578,3.373508 19.2115,6.560935 24.11031,8.725176 27.42593,12.116473 l 3.12244,3.193706 13.64854,-5.360262 c 34.18121,-13.42417 62.82545,-18.787081 100.04854,-18.731565 32.13467,0.04793 55.93431,3.85724 85.68597,13.714684 18.54422,6.144154 27.18609,10.292018 28.79362,13.820181 0.68955,1.513409 1.25374,7.289059 1.25374,12.834789 v 10.08315 h 6.96759 c 8.26164,0 12.61641,1.62513 18.43085,6.87813 8.2037,7.41155 7.66822,-3.78843 7.66822,160.38812 0,108.32443 -0.3244,147.76628 -1.24206,151.00998 -1.56864,5.54481 -7.47767,11.9849 -13.69127,14.92173 l -4.8,2.26869 -242.13333,0.15667 c -133.17333,0.0862 -244.13665,-0.24253 -246.585162,-0.73046 z"
       id="path4693"
       inkscape:connector-curvature="0" />
    <path
       style="fill:#fcd487;stroke-width:1.0666666"
       d="M 15.710493,456.18678 C 9.4113861,454.49282 3.5405005,449.87223 0.62452625,444.31359 -1.5736368,440.1233 -1.5852922,439.41821 -1.8871222,292.37044 -2.1134795,182.092 -1.8740906,143.4827 -0.94290015,140.08379 c 1.45175014,-5.299 7.94966735,-12.51097 13.27827515,-14.7374 2.095568,-0.87558 7.204439,-1.50928 12.16783,-1.50928 h 8.555612 l 0.278648,136.61941 c 0.272979,133.83947 0.32078,136.65023 2.349188,138.13333 3.234064,2.36466 6.162009,1.88192 22.313502,-3.67887 16.642813,-5.72994 32.950502,-9.85484 49.215955,-12.44876 14.69056,-2.34276 50.33292,-3.22272 66.22005,-1.63486 26.31443,2.63001 59.75324,11.12456 80.08896,20.34522 3.85002,1.74568 7.42549,2.91101 7.9455,2.58962 0.53654,-0.33158 0.94549,-36.77478 0.94549,-84.25471 v -83.67038 l -2.93334,-0.002 c -1.80019,-10e-4 -6.6097,-2.45021 -12.4503,-6.33925 -10.65966,-7.09787 -9.36135,-7.10116 -19.94636,0.0505 -3.29816,2.22836 -6.99283,5.73993 -8.21036,7.80351 -1.21754,2.06357 -3.38859,4.04682 -4.82456,4.40723 -1.43597,0.3604 -7.48289,-0.35431 -13.43762,-1.58825 -19.96816,-4.13781 -38.32644,-5.69994 -59.79746,-5.08825 -22.51576,0.64145 -37.02366,2.60183 -57.599998,7.78323 -16.7363,4.21442 -19.506139,4.40074 -22.399999,1.50689 -2.773631,-2.77363 -2.820418,-8.64755 -0.08858,-11.11984 2.853142,-2.58206 15.241332,-6.33715 31.568833,-9.56911 35.298914,-6.98725 66.473744,-7.4767 101.853074,-1.59913 7.33333,1.2183 13.81333,2.2915 14.4,2.38491 1.67886,0.26731 1.96871,-14.74061 0.31004,-16.05247 -3.13929,-2.48298 -39.01108,-7.7778 -52.69298,-7.7778 -8.50645,0 -12.15039,-2.53281 -12.15039,-8.44543 0,-6.8533 2.51636,-8.13742 15.32447,-7.82019 11.6507,0.28856 31.48621,2.57835 42.70279,4.92955 3.82845,0.8025 7.2185,1.20141 7.53344,0.88647 0.31495,-0.31494 0.57263,-11.47384 0.57263,-24.79757 0,-18.10732 -0.33671,-24.49082 -1.33333,-25.2778 -1.8781,-1.48301 -16.85241,-4.31364 -33.25723,-6.2867 -10.65639,-1.28167 -19.54337,-1.5316 -37.70383,-1.06036 -22.67644,0.58843 -23.85718,0.52046 -25.86666,-1.48902 -2.95719,-2.95719 -2.76559,-8.58039 0.39345,-11.54815 5.72529,-5.37864 50.29633,-5.40313 81.97871,-0.045 7.21722,1.22057 13.60223,2.2946 14.18889,2.38673 0.67198,0.1055 1.17414,-7.50754 1.3571,-20.57474 0.38438,-27.452563 0.35898,-27.424616 19.48531,-21.426504 21.21767,6.653962 30.6535,11.294332 33.61746,16.532438 1.06558,1.883167 1.78704,1.724901 13.33333,-2.924877 55.79416,-22.468764 116.07152,-25.928475 173.80679,-9.975938 15.43039,4.263491 35.09158,11.645368 38.62728,14.502776 2.1981,1.776423 2.49215,3.115335 2.97272,13.536215 l 0.53334,11.56479 9.70138,0.54039 c 8.35115,0.46519 10.2916,0.9494 13.94192,3.47909 5.26207,3.64661 8.34242,7.7316 9.91133,13.14386 0.88162,3.04132 1.12353,44.15616 0.89375,151.90332 -0.31441,147.43392 -0.31956,147.74198 -2.54233,152 -2.97978,5.70822 -9.77833,10.73847 -16.44603,12.16844 -8.52282,1.82781 -485.194546,1.48671 -492.032301,-0.3521 z M 64.394171,349.126 c -6.097915,-0.90968 -7.768104,-10.37603 -2.511391,-14.23414 2.905932,-2.13278 25.367876,-8.37031 30.181817,-8.38128 3.729191,-0.009 8.218183,4.29861 8.218183,7.88522 0,5.39031 -3.771243,7.6466 -19.200001,11.48715 -7.92,1.97146 -15.429874,3.43084 -16.688608,3.24305 z m 148.421939,-3.48892 c -25.74082,-6.41358 -36.25066,-7.71031 -64.87107,-8.00397 -22.70608,-0.23297 -25.62885,-0.46379 -27.51766,-2.17313 -3.17686,-2.87502 -2.39437,-9.66138 1.44305,-12.51528 2.72317,-2.02525 4.42065,-2.16961 25.06666,-2.13192 24.00395,0.0438 40.36708,1.74297 60.45595,6.27777 24.61287,5.55603 29.42307,7.82954 29.42307,13.90672 0,2.78058 -3.51498,7.46252 -6.10761,8.1353 -1.04081,0.27009 -9.09239,-1.30288 -17.89239,-3.49549 z M 60.816113,312.63711 c -2.71861,-2.71862 -2.82199,-8.64614 -0.1923,-11.02598 4.251217,-3.84729 28.039212,-9.91068 51.448177,-13.11377 16.04666,-2.19569 52.21789,-2.49755 67.14412,-0.56036 13.32183,1.72897 33.49908,5.82877 44.76922,9.09662 12.46665,3.61478 15.81542,8.32144 10.62003,14.9263 -2.86711,3.64493 -5.26789,3.59535 -20.88505,-0.43137 -24.858,-6.40936 -36.67178,-7.83555 -65.43753,-7.89977 -29.37051,-0.0656 -39.91933,1.14589 -64.917136,7.45528 -16.88486,4.2617 -19.650412,4.45216 -22.549531,1.55305 z m 3.578058,-31.75323 c -6.106624,-0.97647 -7.766139,-10.39995 -2.511391,-14.26082 3.297379,-2.42271 23.018827,-7.62362 39.71697,-10.47407 16.00049,-2.73137 43.74598,-4.60745 54.44957,-3.68176 7.12614,0.6163 8.59685,1.09536 10.4,3.38769 2.82699,3.59395 2.64452,7.2681 -0.51806,10.43067 -2.50686,2.50687 -3.19848,2.61823 -16.26667,2.61908 -24.22704,10e-4 -48.21635,3.13578 -71.781811,9.37828 -6.16,1.63179 -12.229874,2.8022 -13.488608,2.60093 z m 148.421939,-3.56827 c -8.8,-2.22162 -17.01527,-4.06312 -18.25615,-4.09224 -1.24089,-0.0291 -3.52089,-1.04777 -5.06667,-2.26368 -5.08055,-3.99636 -3.47986,-11.89848 2.86771,-14.15699 2.22311,-0.791 19.00279,2.49445 31.95365,6.2565 9.17403,2.66493 12.50146,5.20737 12.50146,9.55223 0,2.88168 -3.46965,7.57034 -6.10761,8.25344 -1.04081,0.26953 -9.09239,-1.32765 -17.89239,-3.54926 z M 60.816113,210.23711 c -2.940512,-2.94051 -2.80901,-8.59687 0.266667,-11.47035 2.797264,-2.61335 21.96939,-7.86287 40.106,-10.98139 16.06005,-2.76148 18.84545,-2.69377 22.07581,0.53659 3.26254,3.26253 3.34134,7.10956 0.21819,10.6508 -2.06215,2.33818 -4.05176,2.96129 -14.13334,4.4263 -6.45333,0.93778 -18.213328,3.3368 -26.133328,5.33116 -16.7363,4.21442 -19.506139,4.40075 -22.399999,1.50689 z m 3.733333,-31.8274 c -3.731924,-0.68721 -5.866666,-3.46696 -5.866666,-7.63927 0,-5.05028 2.226745,-7.05227 10.843281,-9.74885 21.125734,-6.61136 49.814659,-10.74917 75.556719,-10.89756 25.19617,-0.14524 34.75354,0.903 38.02058,4.17003 3.04257,3.04257 3.21802,6.83606 0.4729,10.22489 l -2.03985,2.51816 -29.69348,0.0378 c -33.48761,0.0426 -43.18882,1.1315 -69.693484,7.82294 -8.506667,2.14762 -16.426666,3.72799 -17.6,3.51193 z m -3.733333,-36.43926 c -2.773631,-2.77364 -2.820418,-8.64756 -0.08858,-11.11984 2.734333,-2.47454 17.26457,-7.0135 22.451791,-7.0135 3.211339,0 4.648077,0.63497 6.359365,2.81052 5.200753,6.61168 1.878192,11.26082 -10.589627,14.81767 -11.180835,3.1897 -15.332737,3.30536 -18.132953,0.50515 z"
       id="path4691"
       inkscape:connector-curvature="0" />
    <path
       style="fill:#e0bb8a;stroke-width:1.0666666"
       d="M 15.710493,456.18678 C 9.4113861,454.49282 3.5405005,449.87223 0.62452625,444.31359 -1.5736368,440.1233 -1.5852922,439.41821 -1.8871222,292.37044 -2.1134795,182.092 -1.8740906,143.4827 -0.94290015,140.08379 c 1.45175014,-5.299 7.94966735,-12.51097 13.27827515,-14.7374 2.096992,-0.87618 7.206091,-1.50928 12.179812,-1.50928 h 8.567594 l 0.106325,135.2 c 0.05847,74.36 0.439103,136.39568 0.845831,137.85709 0.995887,3.5783 5.384232,5.05054 10.537874,3.53535 2.18715,-0.64303 8.776636,-2.87717 14.643302,-4.96477 13.799766,-4.91051 28.697756,-8.73692 45.333337,-11.64346 11.45605,-2.00159 17.38825,-2.33343 42.13333,-2.3569 30.32416,-0.0288 37.13638,0.60151 59.2,5.47719 15.65563,3.45963 25.9856,6.68033 42.84574,13.35853 l 13.51243,5.35218 14.75424,-5.8806 c 62.42835,-24.8821 130.3435,-26.05191 193.04068,-3.32503 14.72819,5.33878 16.58607,5.58457 19.58023,2.59041 2.11111,-2.11111 2.13333,-3.55555 2.13333,-138.66666 V 123.83711 h 8.5676 c 4.97371,0 10.08281,0.6331 12.1798,1.50928 5.32861,2.22643 11.82653,9.4384 13.27829,14.7374 0.93119,3.39891 1.17057,42.00821 0.94421,152.28665 -0.30264,147.44532 -0.30757,147.74165 -2.53051,152 -2.97978,5.70822 -9.77833,10.73847 -16.44603,12.16844 -8.52282,1.82781 -485.194542,1.48671 -492.032297,-0.3521 z M 290.17681,348.02858 c -4.04588,-4.04587 -4.24113,-8.423 -0.57035,-12.78549 2.1828,-2.5941 4.89577,-3.77969 15.2,-6.64253 16.36012,-4.54536 20.94912,-4.67793 24.36811,-0.70398 3.47597,4.04018 3.50897,10.15778 0.0722,13.38645 -1.61213,1.51451 -7.02076,3.53332 -15.2,5.67349 -18.67654,4.8869 -19.99588,4.94615 -23.86997,1.07206 z m 154.70914,-0.26363 c -22.00358,-6.06522 -34.43958,-7.64413 -64.53762,-8.19391 l -27.66779,-0.50539 -2.99888,-2.99889 c -6.70555,-6.70555 -1.9685,-15.13859 9.29416,-16.54577 9.19598,-1.14896 46.23973,0.19701 59.17362,2.15005 13.07409,1.97422 40.81368,8.63799 45.02659,10.81657 3.61713,1.8705 5.11667,4.57409 5.07282,9.14604 -0.0378,3.93589 -1.47963,6.30751 -4.96263,8.16256 -3.25932,1.73592 -5.71833,1.46447 -18.40027,-2.03126 z M 64.394171,349.126 c -6.097915,-0.90968 -7.768104,-10.37603 -2.511391,-14.23414 2.905932,-2.13278 25.367876,-8.37031 30.181817,-8.38128 3.729191,-0.009 8.218183,4.29861 8.218183,7.88522 0,5.39031 -3.771243,7.6466 -19.200001,11.48715 -7.92,1.97146 -15.429874,3.43084 -16.688608,3.24305 z m 148.421939,-3.48892 c -25.74082,-6.41358 -36.25066,-7.71031 -64.87107,-8.00397 -22.70608,-0.23297 -25.62885,-0.46379 -27.51766,-2.17313 -3.17686,-2.87502 -2.39437,-9.66138 1.44305,-12.51528 2.72317,-2.02525 4.42065,-2.16961 25.06666,-2.13192 24.00395,0.0438 40.36708,1.74297 60.45595,6.27777 24.61287,5.55603 29.42307,7.82954 29.42307,13.90672 0,2.78058 -3.51498,7.46252 -6.10761,8.1353 -1.04081,0.27009 -9.09239,-1.30288 -17.89239,-3.49549 z m 77.25128,-31.85126 c -5.10304,-5.10303 -3.65279,-12.43951 3.09163,-15.63994 5.40506,-2.56487 29.54086,-8.37018 44.49787,-10.70295 17.73004,-2.76525 62.94941,-2.83536 79.75568,-0.12366 25.62686,4.1349 44.49215,9.24282 48.33691,13.08758 3.91495,3.91495 3.52786,10.13707 -0.86038,13.82953 -3.99426,3.36095 -4.51667,3.32865 -22.73967,-1.40581 -43.46183,-11.2917 -90.71169,-10.80998 -134.39999,1.37024 -12.23976,3.41242 -13.89345,3.37361 -17.68205,-0.41499 z M 60.816113,312.63711 c -2.71861,-2.71862 -2.82199,-8.64614 -0.1923,-11.02598 4.251217,-3.84729 28.039212,-9.91068 51.448177,-13.11377 16.04666,-2.19569 52.21789,-2.49755 67.14412,-0.56036 13.32183,1.72897 33.49908,5.82877 44.76922,9.09662 12.46665,3.61478 15.81542,8.32144 10.62003,14.9263 -2.86711,3.64493 -5.26789,3.59535 -20.88505,-0.43137 -24.858,-6.40936 -36.67178,-7.83555 -65.43753,-7.89977 -29.37051,-0.0656 -39.91933,1.14589 -64.917136,7.45528 -16.88486,4.2617 -19.650412,4.45216 -22.549531,1.55305 z M 290.17681,279.76192 c -4.04588,-4.04588 -4.24113,-8.42301 -0.57035,-12.78549 2.17439,-2.58412 4.83853,-3.75645 14.66667,-6.45398 23.44118,-6.43386 48.58837,-9.75201 73.90749,-9.75201 14.87354,0 15.35739,0.072 18.55364,2.76148 4.25991,3.58449 4.55976,9.49996 0.70857,13.97904 l -2.57328,2.99281 -23.82672,0.69226 c -25.47233,0.74005 -39.18226,2.58825 -59.02672,7.95717 -16.24436,4.39493 -18.00405,4.44397 -21.8393,0.60872 z m 154.63929,-0.21966 c -6.16,-1.66109 -14.04955,-3.58691 -17.53232,-4.27959 -11.69234,-2.32548 -15.93296,-10.39104 -9.07106,-17.25295 3.12876,-3.12876 3.53153,-3.23526 9.7702,-2.58318 7.53236,0.78728 30.9361,6.65341 35.20156,8.82323 3.60425,1.83346 5.10826,4.54109 5.06437,9.11722 -0.0378,3.93589 -1.47963,6.3075 -4.96263,8.16255 -3.24134,1.72635 -5.66593,1.46548 -18.47012,-1.98728 z m -380.421929,1.34162 c -6.106624,-0.97647 -7.766139,-10.39995 -2.511391,-14.26082 3.297379,-2.42271 23.018827,-7.62362 39.71697,-10.47407 16.00049,-2.73137 43.74598,-4.60745 54.44957,-3.68176 7.12614,0.6163 8.59685,1.09536 10.4,3.38769 2.82699,3.59395 2.64452,7.2681 -0.51806,10.43067 -2.50686,2.50687 -3.19848,2.61823 -16.26667,2.61908 -24.22704,10e-4 -48.21635,3.13578 -71.781811,9.37828 -6.16,1.63179 -12.229874,2.8022 -13.488608,2.60093 z m 148.421939,-3.56827 c -8.8,-2.22162 -17.01527,-4.06312 -18.25615,-4.09224 -1.24089,-0.0291 -3.52089,-1.04777 -5.06667,-2.26368 -5.08055,-3.99636 -3.47986,-11.89848 2.86771,-14.15699 2.22311,-0.791 19.00279,2.49445 31.95365,6.2565 9.17403,2.66493 12.50146,5.20737 12.50146,9.55223 0,2.88168 -3.46965,7.57034 -6.10761,8.25344 -1.04081,0.26953 -9.09239,-1.32765 -17.89239,-3.54926 z m 77.25128,-31.79645 c -5.10304,-5.10303 -3.65279,-12.43951 3.09163,-15.63995 5.40506,-2.56486 29.54086,-8.37018 44.49787,-10.70294 17.73004,-2.76525 62.94941,-2.83536 79.75568,-0.12366 25.62686,4.1349 44.49215,9.24281 48.33691,13.08757 3.91495,3.91496 3.52786,10.13708 -0.86038,13.82954 -3.99426,3.36095 -4.51667,3.32865 -22.73967,-1.40582 -43.46183,-11.2917 -90.71169,-10.80997 -134.39999,1.37024 -12.23976,3.41243 -13.89345,3.37361 -17.68205,-0.41498 z M 60.816113,244.37044 c -2.773631,-2.77363 -2.820418,-8.64755 -0.08858,-11.11984 2.853142,-2.58206 15.241332,-6.33715 31.568833,-9.56911 35.298914,-6.98725 66.473744,-7.4767 101.853074,-1.59912 7.33333,1.21829 13.81333,2.2915 14.4,2.3849 1.67886,0.26731 1.96871,-14.7406 0.31004,-16.05246 -3.13929,-2.48288 -39.01108,-7.7777 -52.69298,-7.7777 -8.50645,0 -12.15039,-2.53281 -12.15039,-8.44543 0,-6.8533 2.51636,-8.13742 15.32447,-7.82019 11.6507,0.28856 31.48621,2.57835 42.70279,4.92955 3.82845,0.8025 7.2185,1.20141 7.53344,0.88647 0.31495,-0.31494 0.57263,-11.47384 0.57263,-24.79757 0,-18.10732 -0.33671,-24.49082 -1.33333,-25.2778 -1.8781,-1.48301 -16.85241,-4.31364 -33.25723,-6.2867 -10.65639,-1.28167 -19.54337,-1.5316 -37.70383,-1.06036 -22.67644,0.58843 -23.85718,0.52046 -25.86666,-1.48902 -2.95719,-2.95719 -2.76559,-8.58039 0.39345,-11.54815 5.72529,-5.37864 50.29633,-5.40313 81.97871,-0.045 7.21722,1.22057 13.60223,2.2946 14.18889,2.38673 0.67198,0.1055 1.17414,-7.50754 1.3571,-20.57474 0.38113,-27.219768 0.42193,-27.268386 18.30671,-21.813192 8.97977,2.739 21.87919,7.590841 28.55612,10.740776 1.88096,0.88737 4.40096,3.276125 5.6,5.308344 2.13219,3.613796 2.18007,5.140832 2.18007,69.529962 0,57.85948 -0.20116,66.12222 -1.66048,68.20569 -2.55516,3.64799 -5.53526,2.9017 -15.85649,-3.97081 -10.65966,-7.09788 -9.36135,-7.10116 -19.94636,0.0504 -3.29816,2.22836 -6.99283,5.73994 -8.21036,7.80351 -1.21754,2.06357 -3.38859,4.04683 -4.82456,4.40723 -1.43597,0.36041 -7.48289,-0.3543 -13.43762,-1.58824 -19.96816,-4.13782 -38.32644,-5.69995 -59.79746,-5.08826 -22.51576,0.64145 -37.02366,2.60184 -57.600002,7.78323 -16.7363,4.21442 -19.506139,4.40075 -22.399999,1.50689 z M 290.06739,211.38582 c -5.10304,-5.10302 -3.65279,-12.4395 3.09163,-15.63994 10.36781,-4.91985 53.03233,-13.12057 58.14578,-11.17644 6.23247,2.36959 8.19461,11.54268 3.42704,16.02157 -2.11059,1.9828 -5.56009,2.94786 -17.80945,4.98249 -8.35553,1.38787 -20.5935,3.96493 -27.19549,5.72683 -6.60199,1.7619 -13.02466,3.20345 -14.2726,3.20345 -1.24793,0 -3.67204,-1.40308 -5.38691,-3.11796 z m 165.30035,2.64738 c -0.98031,-0.98031 -26.44713,-6.99672 -36.24909,-8.56366 -5.62694,-0.89953 -17.14694,-2.09577 -25.6,-2.65831 -15.25065,-1.01491 -15.39184,-1.04794 -18.30255,-4.28195 -3.95171,-4.39066 -3.88815,-8.83479 0.18462,-12.90755 2.91542,-2.91542 3.66067,-3.11795 11.4732,-3.11795 25.0924,0 72.73709,9.36461 78.87556,15.50307 3.86769,3.8677 3.52594,10.1387 -0.74856,13.73544 -2.86077,2.40718 -8.2381,3.68598 -9.63318,2.29091 z M 60.816113,210.23711 c -2.940512,-2.94051 -2.80901,-8.59687 0.266667,-11.47035 2.797264,-2.61335 21.96939,-7.86287 40.106,-10.98139 16.06005,-2.76148 18.84545,-2.69377 22.07581,0.53659 3.26254,3.26253 3.34134,7.10956 0.21819,10.6508 -2.06215,2.33818 -4.05176,2.96129 -14.13334,4.4263 -6.45333,0.93778 -18.213328,3.3368 -26.133328,5.33116 -16.7363,4.21442 -19.506139,4.40075 -22.399999,1.50689 z M 290.06739,177.25249 c -3.93327,-3.93327 -4.09417,-8.35819 -0.46093,-12.67606 2.18089,-2.59183 4.80918,-3.74223 14.66667,-6.41959 12.10727,-3.28839 21.93637,-5.34182 37.60964,-7.8571 11.96777,-1.92063 62.55648,-1.90624 67.99669,0.0193 4.9719,1.75982 7.20331,4.83504 7.20331,9.92723 0,3.11904 -0.70935,4.53139 -3.42247,6.81433 -3.28992,2.76829 -3.74781,2.85143 -11.82346,2.14699 -30.64431,-2.67315 -69.30312,0.97503 -95.6874,9.02986 -9.55368,2.91663 -12.35182,2.74526 -16.08205,-0.98498 z m 157.41538,0.47056 c -11.67396,-3.36757 -12.13267,-3.59942 -13.90612,-7.02889 -2.14434,-4.14668 -1.95507,-7.6678 0.58579,-10.89797 3.17296,-4.03377 7.13091,-4.43361 17.25414,-1.74305 14.36121,3.81693 16.90083,5.76535 16.83227,12.91385 -0.0378,3.93589 -1.47963,6.30751 -4.96263,8.16256 -3.18691,1.69735 -5.87217,1.45837 -15.80345,-1.4065 z m -382.933324,0.68666 c -3.731924,-0.68721 -5.866666,-3.46696 -5.866666,-7.63927 0,-5.05028 2.226745,-7.05227 10.843281,-9.74885 21.125734,-6.61136 49.814659,-10.74917 75.556719,-10.89756 25.19617,-0.14524 34.75354,0.903 38.02058,4.17003 3.04257,3.04257 3.21802,6.83606 0.4729,10.22489 l -2.03985,2.51816 -29.69348,0.0378 c -33.48761,0.0426 -43.18882,1.1315 -69.693484,7.82294 -8.506667,2.14762 -16.426666,3.72799 -17.6,3.51193 z M 290.06739,143.11916 c -4.94601,-4.94601 -3.66927,-12.43223 2.62985,-15.4202 4.27503,-2.02785 18.5792,-5.99518 21.61559,-5.99518 1.28677,0 3.81643,1.24267 5.62143,2.76148 2.50591,2.10858 3.28184,3.63834 3.28184,6.47013 0,7.34579 -1.89083,8.86301 -15.86321,12.72884 -11.8298,3.27303 -13.52073,3.21971 -17.2855,-0.54507 z m 165.25922,2.60624 c -1.29224,-1.29225 -27.4644,-7.18857 -40.91051,-9.21673 -14.20517,-2.14264 -30.23984,-2.53755 -65.96807,-1.62466 -4.42144,0.11297 -5.53869,-0.2988 -7.73333,-2.85024 -4.67885,-5.43947 -2.36803,-13.36941 4.61619,-15.84115 6.41895,-2.27169 57.22276,-1.95192 72.08168,0.45369 25.69663,4.1602 44.49566,9.25263 48.33691,13.09387 3.86769,3.86771 3.52594,10.1387 -0.74856,13.73545 -2.89843,2.43887 -8.24245,3.68162 -9.67431,2.24977 z M 60.816113,141.97045 c -2.773631,-2.77364 -2.820418,-8.64756 -0.08858,-11.11984 2.734333,-2.47454 17.26457,-7.0135 22.451791,-7.0135 3.211339,0 4.648077,0.63497 6.359365,2.81052 5.200753,6.61168 1.878192,11.26082 -10.589627,14.81767 -11.180835,3.1897 -15.332737,3.30536 -18.132953,0.50515 z"
       id="path4689"
       inkscape:connector-curvature="0" />
    <path
       style="fill:#9d9ba1;stroke-width:1.0666666"
       d="M 15.710493,456.16249 C 9.4249733,454.50209 3.5476815,449.88592 0.62452625,444.31359 -1.5736368,440.1233 -1.5852922,439.41821 -1.8871222,292.37044 -2.1134795,182.092 -1.8740906,143.4827 -0.94290015,140.08379 c 1.45175014,-5.299 7.94966735,-12.51097 13.27827515,-14.7374 2.01982,-0.84393 7.122834,-1.50928 11.575742,-1.50928 h 7.963523 l 0.337404,146.76119 0.337403,146.7612 2.344799,1.89841 c 2.210473,1.78967 9.268182,1.92174 123.199994,2.30548 66.47036,0.22387 168.08362,0.16705 225.80726,-0.12629 l 104.95206,-0.53333 2.24794,-3.01105 2.24793,-3.01105 0.33184,-145.52228 0.33184,-145.52228 h 7.43576 c 4.08966,0 9.06124,0.67918 11.04796,1.50928 5.05964,2.11405 11.70711,9.30791 13.19743,14.2822 1.77137,5.91231 1.80755,295.18402 0.0377,301.09141 -1.70684,5.6969 -6.43569,11.02672 -12.38119,13.95466 l -5.06796,2.49578 -243.73333,0.17037 C 71.045884,457.47609 19.763922,457.23325 15.710493,456.16249 Z M 293.34944,348.58255 c -5.82014,-2.92725 -6.27741,-10.44858 -0.84761,-13.94191 3.2446,-2.08746 20.2241,-6.9375 27.15958,-7.75789 4.95563,-0.5862 5.79,-0.37397 8.26666,2.10269 3.39116,3.39115 3.51772,7.21946 0.3547,10.72887 -1.85991,2.0636 -5.40047,3.40258 -15.73333,5.95009 -7.33333,1.808 -14.05333,3.50599 -14.93333,3.77331 -0.88,0.26732 -2.8,-0.1175 -4.26667,-0.85516 z m 149.33333,-2.90573 c -24.31546,-6.30182 -36.40313,-7.79134 -64.86903,-7.99364 -23.72579,-0.16861 -24.97211,-0.2798 -27.11112,-2.41881 -3.20228,-3.20228 -2.96407,-8.47719 0.51809,-11.47242 2.41789,-2.07978 4.45704,-2.46695 16.44444,-3.12226 23.98867,-1.31138 55.34444,2.23297 81.93639,9.26184 13.66001,3.61065 17.61456,6.04974 17.61456,10.86427 0,3.07357 -3.828,7.71825 -6.93333,8.41254 -1.17334,0.26232 -9.09334,-1.32685 -17.6,-3.53152 z m -379.482172,2.14427 c -3.39525,-1.3963 -4.898277,-5.82506 -3.195509,-9.41575 1.062969,-2.24152 3.130475,-3.42872 9.87769,-5.67195 12.427443,-4.13171 22.301186,-5.7934 25.571181,-4.30349 3.383606,1.54167 4.58304,6.11376 2.553432,9.7333 -1.473171,2.6272 -7.758064,4.73313 -30.257946,10.13875 -1.173333,0.2819 -3.220314,0.0655 -4.548848,-0.48086 z m 153.348842,-2.20034 c -25.01842,-6.92074 -52.19006,-10.15476 -77.00401,-9.16517 -14.07458,0.5613 -15.91244,0.42918 -18.04443,-1.2972 -3.17951,-2.57461 -3.22082,-8.30116 -0.0783,-10.84586 5.24821,-4.24973 44.3499,-3.63147 72.32393,1.14357 17.30044,2.95311 37.68949,8.46775 40.0556,10.83386 3.65959,3.65959 1.38293,10.56908 -3.91951,11.8954 -1.17333,0.29348 -7.17333,-0.86058 -13.33333,-2.5646 z m -3.75615,-35.17348 c -26.15494,-6.54816 -37.12213,-7.87751 -65.04385,-7.88413 -27.68856,-0.006 -40.31594,1.47114 -64.44033,7.54093 -18.726759,4.71174 -20.761248,4.683 -23.400132,-0.33046 -1.356232,-2.57662 -0.345829,-6.50208 2.222204,-8.63337 2.467529,-2.04786 29.136106,-8.48464 45.772308,-11.04768 12.51478,-1.92807 19.79523,-2.35604 39.84595,-2.34228 27.33819,0.0188 43.84472,1.93615 66.84606,7.76474 16.7095,4.23423 19.83916,5.62877 20.74666,9.24455 0.87224,3.4753 -1.27017,7.83715 -4.39272,8.94338 -1.27278,0.45091 -8.5967,-0.86238 -18.15615,-3.25568 z m 77.98651,2.29705 c -2.75133,-3.04018 -2.50075,-8.32327 0.53843,-11.35225 3.25135,-3.24042 25.27992,-9.0297 46.98526,-12.34809 18.21819,-2.78526 54.40664,-3.32927 71.84595,-1.08004 25.75832,3.32218 52.59417,10.22915 55.42028,14.26398 2.24964,3.21181 2.0654,6.38879 -0.56437,9.732 -2.75234,3.49904 -7.18407,3.67392 -16.98925,0.67041 -3.81333,-1.16809 -12.93333,-3.29251 -20.26667,-4.72094 -38.18713,-7.43826 -76.81456,-6.23121 -115.73332,3.6165 -14.95606,3.78436 -18.7188,4.00024 -21.23631,1.21843 z m 2.56964,-32.42844 c -1.46667,-0.73766 -3.29285,-2.64716 -4.05821,-4.24332 -1.89349,-3.94899 0.1461,-8.16231 5.12488,-10.58676 14.86501,-7.23863 70.60703,-15.17935 92.29145,-13.14735 6.78736,0.63603 8.27842,1.14764 10.10225,3.46626 2.8647,3.64188 2.69745,7.30488 -0.47856,10.48088 -2.49576,2.49576 -3.2314,2.61823 -15.73333,2.61908 -26.86106,0.002 -56.67801,4.41217 -82.98181,12.27419 -0.88,0.26302 -2.8,-0.12532 -4.26667,-0.86298 z m 147.73333,-3.13106 c -9.38667,-2.31905 -18.26667,-4.78843 -19.73333,-5.4875 -5.96332,-2.84237 -6.26267,-10.33763 -0.56205,-14.07282 3.20159,-2.09776 7.48284,-1.49151 28.81415,4.08027 13.66764,3.57001 17.61456,5.99544 17.61456,10.82437 0,3.07737 -3.83298,7.7233 -6.93333,8.40385 -1.17334,0.25755 -9.81334,-1.42913 -19.2,-3.74817 z m -377.882172,2.37245 c -5.815892,-2.39864 -5.021925,-10.72702 1.273392,-13.35738 17.635773,-7.36869 67.23054,-14.47169 90.20879,-12.91975 7.54305,0.50945 9.38035,0.99726 10.93333,2.90282 2.47164,3.03281 2.36359,6.89055 -0.26667,9.52081 -1.90102,1.90103 -3.55624,2.13343 -15.2,2.13423 -23.3682,10e-4 -46.91666,2.95963 -68.533328,8.6088 -6.453333,1.68648 -12.693333,3.3004 -13.866666,3.5865 -1.173333,0.2861 -3.220314,0.0719 -4.548848,-0.47603 z m 148.015512,-3.36586 c -22.35317,-5.61734 -21.68656,-5.37184 -23.20854,-8.54735 -1.73484,-3.6196 -0.20745,-7.9231 3.39451,-9.56427 4.74879,-2.16369 41.19525,6.9273 43.26321,10.79132 2.3506,4.39214 -0.0584,9.93033 -4.78252,10.99454 -1.17333,0.26432 -9.57333,-1.38909 -18.66666,-3.67424 z M 63.782229,245.18136 c -5.030571,-1.67685 -5.975253,-8.719 -1.651047,-12.30778 2.48325,-2.06091 29.198412,-8.49605 45.772308,-11.02562 27.42924,-4.18635 70.73357,-2.96826 94.99781,2.67215 4.25514,0.98914 6.39825,1.07355 7.18866,0.28314 1.29165,-1.29164 1.50819,-14.44687 0.26987,-16.39558 -1.71348,-2.69648 -27.57143,-7.17811 -48.55819,-8.41597 -14.45816,-0.85279 -17.07441,-2.06143 -17.07441,-7.88792 0,-2.44376 0.79059,-4.17263 2.56523,-5.60965 2.32297,-1.88103 3.6242,-2.00872 13.77778,-1.35207 13.16899,0.85167 31.94023,3.2085 41.31886,5.18781 4.53574,0.95724 6.98622,1.0547 7.73333,0.30758 1.26183,-1.26182 1.52155,-48.48165 0.27735,-50.42328 -1.02564,-1.60056 -6.40343,-2.99031 -22.65034,-5.85341 -11.3418,-1.99869 -17.79435,-2.38064 -43.2,-2.55715 -16.42666,-0.11414 -30.38962,-0.27328 -31.02877,-0.35368 -1.99353,-0.25072 -3.67175,-5.25157 -2.65755,-7.91909 1.63752,-4.30702 3.83638,-5.09948 17.32237,-6.24292 20.7114,-1.75608 53.14606,0.33121 74.20361,4.77528 4.53574,0.95724 6.98622,1.0547 7.73333,0.30759 0.67273,-0.67273 1.09368,-9.14061 1.09368,-22.00034 0,-22.245742 0.26872,-23.466669 5.165,-23.466669 5.31947,0 36.4733,10.748041 42.54847,14.679182 1.30908,0.847083 2.86641,3.2908 3.46072,5.430483 0.67496,2.429996 1.07691,27.914394 1.0708,67.890334 -0.0107,67.06807 -0.12668,68.81913 -4.6339,69.68714 -1.06443,0.20499 -5.96766,-2.31076 -10.89607,-5.59055 -4.92842,-3.27979 -9.81059,-5.96326 -10.84927,-5.96326 -3.1243,0 -16.27287,9.49011 -18.59017,13.41765 -1.1888,2.01486 -3.33494,3.95791 -4.7692,4.31789 -1.43426,0.35998 -7.50494,-0.35347 -13.4904,-1.58544 -19.58105,-4.03032 -29.53942,-4.94356 -53.54931,-4.9108 -26.97135,0.0368 -40.00558,1.61943 -64.654675,7.85045 -11.060939,2.79607 -16.359905,3.68317 -18.245876,3.0545 z M 290.7798,244.47765 c -2.75133,-3.04018 -2.50075,-8.32326 0.53843,-11.35224 3.25135,-3.24043 25.27992,-9.02971 46.98526,-12.3481 18.21819,-2.78526 54.40664,-3.32927 71.84595,-1.08003 25.75832,3.32218 52.59417,10.22914 55.42028,14.26398 2.24964,3.21181 2.0654,6.38879 -0.56437,9.732 -2.75234,3.49904 -7.18407,3.67392 -16.98925,0.67041 -3.81333,-1.1681 -12.93333,-3.29251 -20.26667,-4.72094 -38.18713,-7.43826 -76.81456,-6.23121 -115.73332,3.61649 -14.95606,3.78436 -18.7188,4.00025 -21.23631,1.21843 z M 63.90357,211.09184 c -5.142166,-1.72027 -6.14676,-8.72118 -1.772388,-12.35159 2.389844,-1.9834 29.151972,-8.51004 43.312698,-10.56293 10.06534,-1.45917 13.33258,-1.58513 15.50018,-0.5975 5.48902,2.50097 4.49263,11.43293 -1.46128,13.09922 -1.46667,0.41048 -8.18667,1.60173 -14.93333,2.64724 -6.746671,1.04551 -18.026671,3.42967 -25.066671,5.29813 -9.370052,2.48687 -13.544729,3.14805 -15.579209,2.46743 z m 226.87623,-0.74752 c -2.65056,-2.92883 -2.48638,-8.19615 0.34955,-11.21487 2.80024,-2.98071 20.28676,-7.91587 39.92608,-11.2682 16.63803,-2.84003 19.36397,-2.78448 22.60915,0.46071 3.26273,3.26272 3.34196,7.11852 0.21819,10.6188 -2.07261,2.32241 -4.29162,2.98886 -16.26667,4.88547 -7.62666,1.20791 -19.24254,3.6245 -25.81308,5.37021 -14.01878,3.72461 -18.47131,3.96771 -21.02322,1.14788 z m 158.30297,0.26236 c -13.57084,-4.39032 -37.50243,-8.40528 -56.93166,-9.55133 -10.83051,-0.63885 -13.05643,-1.08375 -15.36738,-3.07156 -3.39372,-2.91916 -3.51564,-8.41177 -0.25859,-11.65055 2.01774,-2.00644 3.33148,-2.20557 13.13315,-1.99066 27.63031,0.60585 71.80054,9.61623 75.91143,15.48535 2.24964,3.2118 2.0654,6.38879 -0.56437,9.732 -1.79272,2.27907 -3.05332,2.79057 -6.66667,2.70505 -2.45075,-0.058 -6.61591,-0.80424 -9.25591,-1.6583 z m -155.73333,-32.6908 c -4.03103,-2.02741 -5.79702,-6.41336 -4.05821,-10.07877 1.77646,-3.74472 6.24529,-5.88047 19.52488,-9.33128 30.72695,-7.98466 66.46378,-10.68762 96.46252,-7.29592 9.66371,1.09259 13.48828,7.24242 8.47088,13.62101 l -2.2666,2.88151 -20.9334,-0.73404 c -33.74484,-1.18328 -57.35425,1.82175 -92.9334,11.82868 -0.88,0.24751 -2.8,-0.15352 -4.26667,-0.89119 z m 155.73333,-1.36134 c -4.98667,-1.39789 -10.1237,-3.09999 -11.41564,-3.78245 -3.36053,-1.77521 -4.6556,-6.19991 -2.98062,-10.18352 2.31351,-5.50223 6.33085,-5.90839 19.78437,-2.00024 12.45751,3.61881 15.96728,8.6523 10.34522,14.83643 -3.46786,3.81457 -5.60773,3.96822 -15.73333,1.12978 z m -385.882172,0.57693 c -3.391185,-1.3624 -4.900219,-5.79801 -3.195509,-9.39279 1.032304,-2.17686 3.077526,-3.41668 8.811024,-5.34126 21.209554,-7.11946 48.491827,-11.11262 76.799997,-11.24081 31.75215,-0.14379 38.93333,1.38634 38.93333,8.29567 0,3.5303 -3.28315,7.24268 -6.43624,7.2777 -1.44673,0.0161 -10.79042,-0.3295 -20.76376,-0.76792 -27.52489,-1.20995 -56.41179,2.17946 -81.625111,9.57738 -10.214072,2.99695 -9.312099,2.88228 -12.523731,1.59203 z m 0.702972,-34.30785 c -5.114941,-1.70829 -6.149196,-8.71761 -1.816855,-12.31313 2.456968,-2.03911 21.337109,-6.52665 23.751184,-5.64532 5.322127,1.94298 6.240536,10.72489 1.348786,12.89721 -6.45849,2.86809 -20.627589,5.94813 -23.283115,5.06124 z m 226.87623,-0.74596 c -2.63432,-2.91089 -2.48678,-8.19573 0.31196,-11.17486 2.57848,-2.74466 16.54747,-7.06569 22.8419,-7.06569 2.82854,0 4.35696,0.71535 6.00503,2.81052 5.20075,6.61168 1.87818,11.26082 -10.58964,14.81767 -11.1356,3.17679 -16.1003,3.34052 -18.56925,0.61236 z m 156.70297,-0.19667 c -21.09217,-6.68418 -51.22826,-10.08004 -80.84666,-9.11014 -13.27837,0.43482 -21.84603,0.29924 -23.0878,-0.36533 -4.72944,-2.53112 -4.30383,-12.44817 0.61585,-14.34987 4.24224,-1.63984 28.32215,-2.92184 43.05194,-2.29207 24.66522,1.05456 48.40573,4.82031 67.95362,10.77888 11.8346,3.60741 14.9389,8.26304 9.83563,14.7508 -2.71674,3.45377 -7.92723,3.62855 -17.52258,0.58773 z"
       id="path4687"
       inkscape:connector-curvature="0" />
    <path
       style="fill:#5c637d;stroke-width:1.0666666"
       d="m 19.501137,455.5168 c -2.483237,-0.49253 -6.219884,-1.70455 -8.30366,-2.69337 -3.9939916,-1.89527 -10.1146954,-8.48653 -10.1146954,-10.89231 0,-0.78096 -0.42542868,-1.15699 -0.9453972,-0.83563 -0.51996841,0.32136 -1.2334142,-0.49031 -1.5854349,-1.80372 -1.0126899,-3.77838 -0.6233746,-296.54562 0.3974988,-298.92132 0.50419863,-1.17334 0.95046166,-1.67936 0.99169568,-1.12451 0.04123413,0.55486 1.45970562,-1.17466 3.15215902,-3.84339 4.2431391,-6.69073 11.908074,-10.49877 21.132245,-10.49877 h 6.723899 l 0.006,143.73333 c 0.0041,98.25256 0.364895,145.02599 1.14033,147.81853 0.861767,3.10345 1.97323,4.4357 4.6249,5.54364 2.920009,1.22006 40.125148,1.42406 227.630063,1.24813 l 224.13952,-0.21031 2.4296,-2.42948 2.4296,-2.42948 0.53334,-146.37051 0.53333,-146.37052 6.27192,-0.32403 c 8.72312,-0.45067 16.71163,3.44717 21.03428,10.26327 1.70159,2.68314 3.12754,4.42445 3.16877,3.86959 0.0413,-0.55485 0.48749,-0.0488 0.9917,1.12451 1.02087,2.3757 1.41018,295.14294 0.3975,298.92132 -0.35202,1.31341 -1.06547,2.12508 -1.58544,1.80372 -0.51997,-0.32136 -0.9454,0.17667 -0.9454,1.10673 0,2.62827 -8.589,10.55288 -13.33333,12.30194 -3.7082,1.3671 -35.81965,1.59492 -245.33333,1.74057 -132.58666,0.0922 -243.098399,-0.23539 -245.581637,-0.72793 z M 212.99389,232.99266 c -0.39112,-0.3911 -0.71112,-34.89233 -0.71112,-76.66938 0,-65.15787 0.22058,-76.14135 1.55132,-77.245766 1.2317,-1.022215 3.53804,-0.715922 11.1939,1.486609 13.54445,3.896629 31.9341,11.152312 34.32468,13.542884 1.9362,1.936212 2.00204,4.607617 1.73794,70.523413 -0.24615,61.43573 -0.44844,68.54447 -1.95881,68.83527 -0.92636,0.17834 -6.09983,-2.57512 -11.49659,-6.11882 -5.39676,-3.5437 -10.18883,-6.44309 -10.64905,-6.44309 -0.46022,0 -5.0573,2.88 -10.21573,6.4 -8.81622,6.016 -12.09535,7.37009 -13.77654,5.68888 z"
       id="path4685"
       inkscape:connector-curvature="0" />
    <path
       style="fill:#d11d32;stroke-width:1.0666666"
       d="m 237.54639,455.94517 c -0.40165,-0.40166 -0.73028,-8.09029 -0.73028,-17.08585 v -16.35555 h 25.62708 25.62709 l -0.29376,16.8 -0.29375,16.8 -24.60305,0.28584 c -13.53167,0.15721 -24.93167,-0.0428 -25.33333,-0.44444 z"
       id="path4683"
       inkscape:connector-curvature="0" />
  </g>
</svg>
